Promo West Live 										

												

		                								

											

Featuring: P.O.D., Bullet For My Valentine, Trapt  from Rock On The Range 2011 Columbus,OH and The LC Pavilion Columbus,OH									

												

												

Includes individual songs and the MP3 for each track. 						

												

												

Enjoy and please share.										

												

												

TTLTTLTTLTTLTTLTTLTTLTTLTTLTTLTTLTTLTTLTTLTTLTTLTTLTTLTTLTTLTTLTTLTTLTTLTTLTTL	

												

Track List:											

												

												

												

												

1: Bullet For My Valentine (Tears Don't Fall) Rock On The Range 2011 Columbus,OH		

												

												

2: P.O.D. (Southtown) LC Pavilion Columbus,OH							

												

												

3: Trapt (End Of My Rope) Rock On The Range 2011 Columbus,OH					

												

												

4: P.O.D. (Youth Of The Nation) LC Pavilion Columbus,OH
												

												

							

TTLTTLTTLTTLTTLTTLTTLTTLTTLTTLTTLTTLTTLTTLTTLTTLTTLTTLTTLTTLTTLTTLTTLTTLTTLTTL	

												

												

												

							

Promo_West_Live_720p.HDTV.X264_20111016_TTL.mkv
Format                           : Matroska
File size                        : 402 MiB
Duration                         : 20mn 16s
Overall bit rate                 : 2 772 Kbps
Writing application              : HandBrake 0.9.5
Writing library                  : libmkv 0.6.4.1

Video
ID                               : 1
Format                           : AVC
Format/Info                      : Advanced Video Codec
Format profile                   : Main@L3.1
Format settings, CABAC           : Yes
Format settings, ReFrames        : 4 frames
Muxing mode                      : Container profile=Unknown@3.1
Codec ID                         : V_MPEG4/ISO/AVC
Duration                         : 20mn 16s
Bit rate                         : 2 384 Kbps
Width                            : 1 280 pixels
Height                           : 720 pixels
Display aspect ratio             : 16:9
Frame rate mode                  : Variable
Frame rate                       : 29.970 fps
Color space                      : YUV
Chroma subsampling               : 4:2:0
Bit depth                        : 8 bits
Scan type                        : Progressive
Bits/(Pixel*Frame)               : 0.086
Stream size                      : 338 MiB (84%)
Writing library                  : x264 core 112
Encoding settings                : cabac=1 / ref=2 / deblock=1:0:0 / analyse=0x1:0x111 / 

me=hex / subme=6 / psy=1 / psy_rd=1.00:0.00 / mixed_ref=0 / me_range=16 / chroma_me=1 / 

trellis=0 / 8x8dct=0 / cqm=0 / deadzone=21,11 / fast_pskip=1 / chroma_qp_offset=-2 / 

threads=3 / sliced_threads=0 / nr=0 / decimate=1 / interlaced=0 / constrained_intra=0 / 

bframes=2 / b_pyramid=2 / b_adapt=1 / b_bias=0 / direct=1 / weightb=0 / open_gop=0 / 

weightp=2 / keyint=300 / keyint_min=29 / scenecut=40 / intra_refresh=0 / rc_lookahead=40 / 

rc=2pass / mbtree=1 / bitrate=2384 / ratetol=1.0 / qcomp=0.60 / qpmin=3 / qpmax=51 / 

qpstep=4 / cplxblur=20.0 / qblur=0.5 / ip_ratio=1.40 / aq=1:1.00
Color primaries                  : BT.709-5, BT.1361, IEC 61966-2-4, SMPTE RP177
Transfer characteristics         : BT.709-5, BT.1361
Matrix coefficients              : BT.709-5, BT.1361, IEC 61966-2-4 709, SMPTE RP177

Audio
ID                               : 2
Format                           : AC-3
Format/Info                      : Audio Coding 3
Mode extension                   : CM (complete main)
Codec ID                         : A_AC3
Duration                         : 20mn 16s
Bit rate mode                    : Constant
Bit rate                         : 384 Kbps
Channel(s)                       : 2 channels
Channel positions                : Front: L R
Sampling rate                    : 48.0 KHz
Stream size                      : 55.7 MiB (14%)



